{
  "accessors": [
    {
      "bufferView": 2,
      "componentType": 5126,
      "count": 65532,
      "max": [
        6.341944217681885,
        12.369399070739746,
        18.271549224853516
      ],
      "min": [
        -7.19484281539917,
        -13.368672370910645,
        0.10497400164604187
      ],
      "type": "VEC3"
    },
    {
      "bufferView": 2,
      "byteOffset": 786384,
      "componentType": 5126,
      "count": 65532,
      "max": [
        0.9999994039535522,
        0.999996542930603,
        0.9966809749603271
      ],
      "min": [
        -0.9999998807907104,
        -0.9999998807907104,
        -0.9997653365135193
      ],
      "type": "VEC3"
    },
    {
      "bufferView": 1,
      "componentType": 5126,
      "count": 65532,
      "max": [
        0.9994469881057739,
        0.9997559785842896
      ],
      "min": [
        0.002701000077649951,
        0.0007329999934881926
      ],
      "type": "VEC2"
    },
    {
      "bufferView": 0,
      "componentType": 5125,
      "count": 343374,
      "type": "SCALAR"
    },
    {
      "bufferView": 2,
      "byteOffset": 1572768,
      "componentType": 5126,
      "count": 65532,
      "max": [
        6.786169052124023,
        12.351067543029785,
        33.56663513183594
      ],
      "min": [
        -7.1513471603393555,
        -13.364678382873535,
        0.10628800094127655
      ],
      "type": "VEC3"
    },
    {
      "bufferView": 2,
      "byteOffset": 2359152,
      "componentType": 5126,
      "count": 65532,
      "max": [
        0.9999986886978149,
        0.9999850988388062,
        0.9999963045120239
      ],
      "min": [
        -0.9999996423721313,
        -0.9999991655349731,
        -0.9998359084129333
      ],
      "type": "VEC3"
    },
    {
      "bufferView": 1,
      "byteOffset": 524256,
      "componentType": 5126,
      "count": 65532,
      "max": [
        0.9996010065078735,
        0.9997559785842896
      ],
      "min": [
        0.00024399999529123306,
        0.00040600000647827983
      ],
      "type": "VEC2"
    },
    {
      "bufferView": 0,
      "byteOffset": 1373496,
      "componentType": 5125,
      "count": 303822,
      "type": "SCALAR"
    },
    {
      "bufferView": 2,
      "byteOffset": 3145536,
      "componentType": 5126,
      "count": 65532,
      "max": [
        7.440446853637695,
        13.446224212646484,
        33.53331756591797
      ],
      "min": [
        -7.185688018798828,
        -12.67389965057373,
        0.11122799664735794
      ],
      "type": "VEC3"
    },
    {
      "bufferView": 2,
      "byteOffset": 3931920,
      "componentType": 5126,
      "count": 65532,
      "max": [
        0.9999967813491821,
        0.9999991655349731,
        0.9997907280921936
      ],
      "min": [
        -1.0,
        -0.9999955892562866,
        -0.9999099969863892
      ],
      "type": "VEC3"
    },
    {
      "bufferView": 1,
      "byteOffset": 1048512,
      "componentType": 5126,
      "count": 65532,
      "max": [
        0.9995239973068237,
        0.9997559785842896
      ],
      "min": [
        0.00024399999529123306,
        0.00044999999227002263
      ],
      "type": "VEC2"
    },
    {
      "bufferView": 0,
      "byteOffset": 2588784,
      "componentType": 5125,
      "count": 296430,
      "type": "SCALAR"
    },
    {
      "bufferView": 2,
      "byteOffset": 4718304,
      "componentType": 5126,
      "count": 65532,
      "max": [
        7.171497821807861,
        11.73388385772705,
        24.60807991027832
      ],
      "min": [
        -6.982783794403076,
        -13.305644035339355,
        0.1615159958600998
      ],
      "type": "VEC3"
    },
    {
      "bufferView": 2,
      "byteOffset": 5504688,
      "componentType": 5126,
      "count": 65532,
      "max": [
        0.999998927116394,
        0.9999929666519165,
        0.9999994039535522
      ],
      "min": [
        -0.9999960660934448,
        -0.999985933303833,
        -0.9999650716781616
      ],
      "type": "VEC3"
    },
    {
      "bufferView": 1,
      "byteOffset": 1572768,
      "componentType": 5126,
      "count": 65532,
      "max": [
        0.9994959831237793,
        0.9997559785842896
      ],
      "min": [
        0.00024399999529123306,
        0.0005380000220611691
      ],
      "type": "VEC2"
    },
    {
      "bufferView": 0,
      "byteOffset": 3774504,
      "componentType": 5125,
      "count": 302121,
      "type": "SCALAR"
    },
    {
      "bufferView": 2,
      "byteOffset": 6291072,
      "componentType": 5126,
      "count": 65532,
      "max": [
        6.797697067260742,
        12.347637176513672,
        33.504173278808594
      ],
      "min": [
        -7.11249303817749,
        -13.290926933288574,
        0.20885500311851501
      ],
      "type": "VEC3"
    },
    {
      "bufferView": 2,
      "byteOffset": 7077456,
      "componentType": 5126,
      "count": 65532,
      "max": [
        0.999996542930603,
        0.9999803304672241,
        0.9999994039535522
      ],
      "min": [
        -0.9999997615814209,
        -0.9999438524246216,
        -0.9999504089355469
      ],
      "type": "VEC3"
    },
    {
      "bufferView": 1,
      "byteOffset": 2097024,
      "componentType": 5126,
      "count": 65532,
      "max": [
        0.9996020197868347,
        0.9997559785842896
      ],
      "min": [
        0.00024399999529123306,
        0.00037799999699927866
      ],
      "type": "VEC2"
    },
    {
      "bufferView": 0,
      "byteOffset": 4982988,
      "componentType": 5125,
      "count": 278982,
      "type": "SCALAR"
    },
    {
      "bufferView": 2,
      "byteOffset": 7863840,
      "componentType": 5126,
      "count": 65532,
      "max": [
        6.366817951202393,
        12.352498054504395,
        21.628883361816406
      ],
      "min": [
        -7.129738807678223,
        -13.297459602355957,
        0.10497400164604187
      ],
      "type": "VEC3"
    },
    {
      "bufferView": 2,
      "byteOffset": 8650224,
      "componentType": 5126,
      "count": 65532,
      "max": [
        0.9999982118606567,
        0.9999980926513672,
        0.9999914169311523
      ],
      "min": [
        -0.9999997615814209,
        -0.9999998807907104,
        -0.9999033212661743
      ],
      "type": "VEC3"
    },
    {
      "bufferView": 1,
      "byteOffset": 2621280,
      "componentType": 5126,
      "count": 65532,
      "max": [
        0.99959397315979,
        0.9997559785842896
      ],
      "min": [
        0.00024399999529123306,
        0.0004149999876972288
      ],
      "type": "VEC2"
    },
    {
      "bufferView": 0,
      "byteOffset": 6098916,
      "componentType": 5125,
      "count": 289602,
      "type": "SCALAR"
    },
    {
      "bufferView": 2,
      "byteOffset": 9436608,
      "componentType": 5126,
      "count": 19341,
      "max": [
        7.277482032775879,
        6.456981182098389,
        30.763107299804688
      ],
      "min": [
        -7.135676860809326,
        -13.362191200256348,
        0.10715200006961823
      ],
      "type": "VEC3"
    },
    {
      "bufferView": 2,
      "byteOffset": 9668700,
      "componentType": 5126,
      "count": 19341,
      "max": [
        0.9999821186065674,
        0.9999463558197021,
        0.9999821186065674
      ],
      "min": [
        -0.9999994039535522,
        -0.999940037727356,
        -0.9989171624183655
      ],
      "type": "VEC3"
    },
    {
      "bufferView": 1,
      "byteOffset": 3145536,
      "componentType": 5126,
      "count": 19341,
      "max": [
        0.999584972858429,
        0.9997559785842896
      ],
      "min": [
        0.00024399999529123306,
        0.0003859999997075647
      ],
      "type": "VEC2"
    },
    {
      "bufferView": 0,
      "byteOffset": 7257324,
      "componentType": 5125,
      "count": 74130,
      "type": "SCALAR"
    },
    {
      "bufferView": 2,
      "byteOffset": 9900792,
      "componentType": 5126,
      "count": 1978,
      "max": [
        6.297915935516357,
        12.365960121154785,
        0.10497400164604187
      ],
      "min": [
        -7.154463768005371,
        -13.29914379119873,
        0.10497400164604187
      ],
      "type": "VEC3"
    },
    {
      "bufferView": 2,
      "byteOffset": 9924528,
      "componentType": 5126,
      "count": 1978,
      "max": [
        0.0004999999655410647,
        0.0020999955013394356,
        -0.9999459981918335
      ],
      "min": [
        -0.00039999998989515007,
        -0.010400478728115559,
        -1.0
      ],
      "type": "VEC3"
    },
    {
      "bufferView": 1,
      "byteOffset": 3300264,
      "componentType": 5126,
      "count": 1978,
      "max": [
        0.8356260061264038,
        0.7453820109367371
      ],
      "min": [
        0.6746259927749634,
        0.513064980506897
      ],
      "type": "VEC2"
    },
    {
      "bufferView": 0,
      "byteOffset": 7553844,
      "componentType": 5125,
      "count": 5739,
      "type": "SCALAR"
    }
  ],
  "asset": {
    "extras": {
      "author": "noe-3d.at (https://sketchfab.com/www.noe-3d.at)",
      "license": "CC-BY-NC-4.0 (http://creativecommons.org/licenses/by-nc/4.0/)",
      "source": "https://sketchfab.com/3d-models/kriegerdenkmal-bf340bf66c2d4c638da48225748b6d79",
      "title": "Kriegerdenkmal"
    },
    "generator": "Sketchfab-14.1.2",
    "version": "2.0"
  },
  "bufferViews": [
    {
      "buffer": 0,
      "byteLength": 7576800,
      "name": "floatBufferViews",
      "target": 34963
    },
    {
      "buffer": 0,
      "byteLength": 3316088,
      "byteOffset": 7576800,
      "byteStride": 8,
      "name": "floatBufferViews",
      "target": 34962
    },
    {
      "buffer": 0,
      "byteLength": 9948264,
      "byteOffset": 10892888,
      "byteStride": 12,
      "name": "floatBufferViews",
      "target": 34962
    }
  ],
  "buffers": [
    {
      "byteLength": 20841152,
      "uri": "scene.bin"
    }
  ],
  "images": [
    {
      "uri": "textures/Kriegerdenkmal_O_Material_u1_v1_baseColor.png"
    }
  ],
  "materials": [
    {
      "doubleSided": true,
      "name": "Kriegerdenkmal_O_Material_u1_v1",
      "pbrMetallicRoughness": {
        "baseColorTexture": {
          "index": 0
        },
        "metallicFactor": 0.0
      }
    },
    {
      "doubleSided": true,
      "name": "bottom",
      "pbrMetallicRoughness": {
        "baseColorFactor": [
          0.273831,
          0.273831,
          0.273831,
          1.0
        ],
        "metallicFactor": 0.0
      }
    }
  ],
  "meshes": [
    {
      "name": "Object_0",
      "primitives": [
        {
          "attributes": {
            "NORMAL": 1,
            "POSITION": 0,
            "TEXCOORD_0": 2
          },
          "indices": 3,
          "material": 0,
          "mode": 4
        }
      ]
    },
    {
      "name": "Object_1",
      "primitives": [
        {
          "attributes": {
            "NORMAL": 5,
            "POSITION": 4,
            "TEXCOORD_0": 6
          },
          "indices": 7,
          "material": 0,
          "mode": 4
        }
      ]
    },
    {
      "name": "Object_2",
      "primitives": [
        {
          "attributes": {
            "NORMAL": 9,
            "POSITION": 8,
            "TEXCOORD_0": 10
          },
          "indices": 11,
          "material": 0,
          "mode": 4
        }
      ]
    },
    {
      "name": "Object_3",
      "primitives": [
        {
          "attributes": {
            "NORMAL": 13,
            "POSITION": 12,
            "TEXCOORD_0": 14
          },
          "indices": 15,
          "material": 0,
          "mode": 4
        }
      ]
    },
    {
      "name": "Object_4",
      "primitives": [
        {
          "attributes": {
            "NORMAL": 17,
            "POSITION": 16,
            "TEXCOORD_0": 18
          },
          "indices": 19,
          "material": 0,
          "mode": 4
        }
      ]
    },
    {
      "name": "Object_5",
      "primitives": [
        {
          "attributes": {
            "NORMAL": 21,
            "POSITION": 20,
            "TEXCOORD_0": 22
          },
          "indices": 23,
          "material": 0,
          "mode": 4
        }
      ]
    },
    {
      "name": "Object_6",
      "primitives": [
        {
          "attributes": {
            "NORMAL": 25,
            "POSITION": 24,
            "TEXCOORD_0": 26
          },
          "indices": 27,
          "material": 0,
          "mode": 4
        }
      ]
    },
    {
      "name": "Object_7",
      "primitives": [
        {
          "attributes": {
            "NORMAL": 29,
            "POSITION": 28,
            "TEXCOORD_0": 30
          },
          "indices": 31,
          "material": 1,
          "mode": 4
        }
      ]
    }
  ],
  "nodes": [
    {
      "children": [
        1
      ],
      "matrix": [
        -0.00012450935070559832,
        -1.3119369910570802e-17,
        0.05908438944058236,
        0.0,
        0.05908438944058236,
        -2.764662958689675e-20,
        0.00012450935070559832,
        0.0,
        0.0,
        0.05908451974391937,
        1.3119398843723789e-17,
        0.0,
        0.0,
        0.0,
        0.0,
        1.0
      ],
      "name": "Sketchfab_model"
    },
    {
      "children": [
        2,
        3,
        4,
        5,
        6,
        7,
        8,
        9
      ],
      "name": "Kriegerdenkmal_C.obj.cleaner.materialmerger.gles"
    },
    {
      "mesh": 0,
      "name": "Object_2"
    },
    {
      "mesh": 1,
      "name": "Object_3"
    },
    {
      "mesh": 2,
      "name": "Object_4"
    },
    {
      "mesh": 3,
      "name": "Object_5"
    },
    {
      "mesh": 4,
      "name": "Object_6"
    },
    {
      "mesh": 5,
      "name": "Object_7"
    },
    {
      "mesh": 6,
      "name": "Object_8"
    },
    {
      "mesh": 7,
      "name": "Object_9"
    }
  ],
  "samplers": [
    {
      "magFilter": 9729,
      "minFilter": 9987,
      "wrapS": 10497,
      "wrapT": 10497
    }
  ],
  "scene": 0,
  "scenes": [
    {
      "name": "Sketchfab_Scene",
      "nodes": [
        0
      ]
    }
  ],
  "textures": [
    {
      "sampler": 0,
      "source": 0
    }
  ]
}
